<mxfile host="app.diagrams.net" modified="2024-04-03T03:00:12.345Z" agent="Mozilla/5.0 (Windows NT 10.0; Win64; x64) AppleWebKit/537.36 (KHTML, like Gecko) Chrome/123.0.0.0 Safari/537.36" etag="52ZTvBjMNA8_j498m26x" version="24.2.1" type="device">
  <diagram name="Page-1" id="jcNndrxe-URrK9e5Chia">
    <mxGraphModel dx="1050" dy="583" grid="1" gridSize="10" guides="1" tooltips="1" connect="1" arrows="1" fold="1" page="1" pageScale="1" pageWidth="850" pageHeight="1100" math="0" shadow="0">
      <root>
        <mxCell id="0" />
        <mxCell id="1" parent="0" />
        <mxCell id="8ThRldzjLZEK7XOQSWFc-1" value="" style="shape=image;html=1;verticalAlign=top;verticalLabelPosition=bottom;labelBackgroundColor=#ffffff;imageAspect=0;aspect=fixed;image=https://cdn0.iconfinder.com/data/icons/construction-2-21/512/construction-industry-building-41-128.png" vertex="1" parent="1">
          <mxGeometry x="140" y="90" width="128" height="128" as="geometry" />
        </mxCell>
        <mxCell id="8ThRldzjLZEK7XOQSWFc-2" value="" style="shape=image;html=1;verticalAlign=top;verticalLabelPosition=bottom;labelBackgroundColor=#ffffff;imageAspect=0;aspect=fixed;image=https://cdn0.iconfinder.com/data/icons/construction-2-21/512/construction-industry-building-41-128.png" vertex="1" parent="1">
          <mxGeometry x="230" y="210" width="128" height="128" as="geometry" />
        </mxCell>
        <mxCell id="8ThRldzjLZEK7XOQSWFc-3" value="" style="shape=image;html=1;verticalAlign=top;verticalLabelPosition=bottom;labelBackgroundColor=#ffffff;imageAspect=0;aspect=fixed;image=https://cdn0.iconfinder.com/data/icons/construction-2-21/512/construction-industry-building-41-128.png" vertex="1" parent="1">
          <mxGeometry x="320" y="330" width="128" height="128" as="geometry" />
        </mxCell>
        <mxCell id="8ThRldzjLZEK7XOQSWFc-4" value="&lt;b&gt;I/P&lt;/b&gt;" style="text;html=1;align=center;verticalAlign=middle;resizable=0;points=[];autosize=1;strokeColor=none;fillColor=none;" vertex="1" parent="1">
          <mxGeometry x="80" y="88" width="40" height="30" as="geometry" />
        </mxCell>
        <mxCell id="8ThRldzjLZEK7XOQSWFc-5" value="&lt;b&gt;O/P&lt;/b&gt;" style="text;html=1;align=center;verticalAlign=middle;resizable=0;points=[];autosize=1;strokeColor=none;fillColor=none;" vertex="1" parent="1">
          <mxGeometry x="260" y="188" width="40" height="30" as="geometry" />
        </mxCell>
        <mxCell id="8ThRldzjLZEK7XOQSWFc-6" value="&lt;b&gt;I/P&lt;/b&gt;" style="text;html=1;align=center;verticalAlign=middle;resizable=0;points=[];autosize=1;strokeColor=none;fillColor=none;" vertex="1" parent="1">
          <mxGeometry x="250" y="218" width="40" height="30" as="geometry" />
        </mxCell>
        <mxCell id="8ThRldzjLZEK7XOQSWFc-7" value="&lt;b&gt;O/P&lt;/b&gt;" style="text;html=1;align=center;verticalAlign=middle;resizable=0;points=[];autosize=1;strokeColor=none;fillColor=none;" vertex="1" parent="1">
          <mxGeometry x="350" y="300" width="40" height="30" as="geometry" />
        </mxCell>
        <mxCell id="8ThRldzjLZEK7XOQSWFc-8" value="&lt;b&gt;I/P&lt;/b&gt;" style="text;html=1;align=center;verticalAlign=middle;resizable=0;points=[];autosize=1;strokeColor=none;fillColor=none;" vertex="1" parent="1">
          <mxGeometry x="350" y="338" width="40" height="30" as="geometry" />
        </mxCell>
        <mxCell id="8ThRldzjLZEK7XOQSWFc-9" value="&lt;b&gt;O/P&lt;/b&gt;" style="text;html=1;align=center;verticalAlign=middle;resizable=0;points=[];autosize=1;strokeColor=none;fillColor=none;" vertex="1" parent="1">
          <mxGeometry x="440" y="428" width="40" height="30" as="geometry" />
        </mxCell>
        <mxCell id="8ThRldzjLZEK7XOQSWFc-17" style="edgeStyle=orthogonalEdgeStyle;rounded=0;orthogonalLoop=1;jettySize=auto;html=1;entryX=0.75;entryY=0;entryDx=0;entryDy=0;" edge="1" parent="1" source="8ThRldzjLZEK7XOQSWFc-10" target="8ThRldzjLZEK7XOQSWFc-12">
          <mxGeometry relative="1" as="geometry" />
        </mxCell>
        <mxCell id="8ThRldzjLZEK7XOQSWFc-10" value="&lt;b&gt;ESC Mode&lt;/b&gt;" style="rounded=1;whiteSpace=wrap;html=1;fillColor=#dae8fc;gradientColor=#7ea6e0;strokeColor=#6c8ebf;" vertex="1" parent="1">
          <mxGeometry x="320" y="680" width="120" height="60" as="geometry" />
        </mxCell>
        <mxCell id="8ThRldzjLZEK7XOQSWFc-15" style="edgeStyle=orthogonalEdgeStyle;rounded=0;orthogonalLoop=1;jettySize=auto;html=1;entryX=0.25;entryY=1;entryDx=0;entryDy=0;" edge="1" parent="1" source="8ThRldzjLZEK7XOQSWFc-11" target="8ThRldzjLZEK7XOQSWFc-10">
          <mxGeometry relative="1" as="geometry" />
        </mxCell>
        <mxCell id="8ThRldzjLZEK7XOQSWFc-11" value="&lt;b&gt;Colon/Command Mode&lt;/b&gt;" style="rounded=1;whiteSpace=wrap;html=1;fillColor=#e6d0de;gradientColor=#d5739d;strokeColor=#996185;" vertex="1" parent="1">
          <mxGeometry x="120" y="800" width="120" height="60" as="geometry" />
        </mxCell>
        <mxCell id="8ThRldzjLZEK7XOQSWFc-12" value="&lt;b&gt;Insert Mode&lt;/b&gt;" style="rounded=1;whiteSpace=wrap;html=1;fillColor=#d5e8d4;gradientColor=#97d077;strokeColor=#82b366;" vertex="1" parent="1">
          <mxGeometry x="490" y="800" width="120" height="60" as="geometry" />
        </mxCell>
        <mxCell id="8ThRldzjLZEK7XOQSWFc-13" style="edgeStyle=orthogonalEdgeStyle;rounded=0;orthogonalLoop=1;jettySize=auto;html=1;entryX=0.577;entryY=-0.02;entryDx=0;entryDy=0;entryPerimeter=0;" edge="1" parent="1" source="8ThRldzjLZEK7XOQSWFc-10" target="8ThRldzjLZEK7XOQSWFc-11">
          <mxGeometry relative="1" as="geometry" />
        </mxCell>
        <mxCell id="8ThRldzjLZEK7XOQSWFc-14" value="&lt;b&gt;:&lt;/b&gt;" style="text;html=1;align=center;verticalAlign=middle;resizable=0;points=[];autosize=1;strokeColor=none;fillColor=none;" vertex="1" parent="1">
          <mxGeometry x="255" y="710" width="30" height="30" as="geometry" />
        </mxCell>
        <mxCell id="8ThRldzjLZEK7XOQSWFc-16" value="&lt;b&gt;Esc&lt;/b&gt;" style="text;html=1;align=center;verticalAlign=middle;resizable=0;points=[];autosize=1;strokeColor=none;fillColor=none;" vertex="1" parent="1">
          <mxGeometry x="280" y="830" width="40" height="30" as="geometry" />
        </mxCell>
        <mxCell id="8ThRldzjLZEK7XOQSWFc-18" value="&lt;b&gt;i&lt;/b&gt;" style="text;html=1;align=center;verticalAlign=middle;resizable=0;points=[];autosize=1;strokeColor=none;fillColor=none;" vertex="1" parent="1">
          <mxGeometry x="520" y="718" width="30" height="30" as="geometry" />
        </mxCell>
        <mxCell id="8ThRldzjLZEK7XOQSWFc-19" style="edgeStyle=orthogonalEdgeStyle;rounded=0;orthogonalLoop=1;jettySize=auto;html=1;entryX=0.617;entryY=1.06;entryDx=0;entryDy=0;entryPerimeter=0;" edge="1" parent="1" source="8ThRldzjLZEK7XOQSWFc-12" target="8ThRldzjLZEK7XOQSWFc-10">
          <mxGeometry relative="1" as="geometry" />
        </mxCell>
        <mxCell id="8ThRldzjLZEK7XOQSWFc-20" value="&lt;b&gt;Esc&lt;/b&gt;" style="text;html=1;align=center;verticalAlign=middle;resizable=0;points=[];autosize=1;strokeColor=none;fillColor=none;" vertex="1" parent="1">
          <mxGeometry x="420" y="830" width="40" height="30" as="geometry" />
        </mxCell>
        <mxCell id="8ThRldzjLZEK7XOQSWFc-21" value="&lt;b&gt;:q&lt;/b&gt;" style="text;html=1;align=center;verticalAlign=middle;resizable=0;points=[];autosize=1;strokeColor=none;fillColor=none;" vertex="1" parent="1">
          <mxGeometry x="135" y="878" width="30" height="30" as="geometry" />
        </mxCell>
        <mxCell id="8ThRldzjLZEK7XOQSWFc-22" value="&lt;b&gt;shift+g --&amp;gt; go to bottom&lt;/b&gt;" style="text;html=1;align=center;verticalAlign=middle;resizable=0;points=[];autosize=1;strokeColor=none;fillColor=none;" vertex="1" parent="1">
          <mxGeometry x="290" y="858" width="160" height="30" as="geometry" />
        </mxCell>
      </root>
    </mxGraphModel>
  </diagram>
</mxfile>
